<?xml version="1.0" encoding="UTF-8" standalone="no"?>
<!-- Created using Krita: https://krita.org -->

<svg
   width="122.88pt"
   height="122.88pt"
   viewBox="0 0 122.88 122.88"
   version="1.1"
   id="svg6072"
   sodipodi:docname="icon.svg"
   inkscape:version="1.2.2 (732a01da63, 2022-12-09)"
   xmlns:inkscape="http://www.inkscape.org/namespaces/inkscape"
   xmlns:sodipodi="http://sodipodi.sourceforge.net/DTD/sodipodi-0.dtd"
   xmlns="http://www.w3.org/2000/svg"
   xmlns:svg="http://www.w3.org/2000/svg">
  <sodipodi:namedview
     id="namedview6074"
     pagecolor="#ffffff"
     bordercolor="#666666"
     borderopacity="1.0"
     inkscape:showpageshadow="2"
     inkscape:pageopacity="0.0"
     inkscape:pagecheckerboard="0"
     inkscape:deskcolor="#d1d1d1"
     inkscape:document-units="pt"
     showgrid="false"
     inkscape:zoom="5.1086427"
     inkscape:cx="82.017872"
     inkscape:cy="82.017872"
     inkscape:window-width="1920"
     inkscape:window-height="1017"
     inkscape:window-x="1912"
     inkscape:window-y="-8"
     inkscape:window-maximized="1"
     inkscape:current-layer="shape03" />
  <defs
     id="defs6058" />
  <g
     aria-label=""
     transform="matrix(1.00000002235174 0 0 1.00000002235174 1.25780455936132 114.375311263844)"
     id="shape0"
     style="font-size:60px;font-family:'XIV AXIS Std ATK';letter-spacing:0;word-spacing:0;stroke:#000000;stroke-width:0;stroke-linecap:square;stroke-linejoin:bevel;stroke-opacity:0">
    <path
       d="m 30.24,-24.24 q 2.82,-0.36 4.8,-2.22 1.98,-1.86 2.04,-5.58 0,-3.9 -2.64,-5.4 -2.58,-1.44 -7.38,-1.38 h -4.98 v 14.58 z m 11.28,9.3 q 1.2,2.82 2.88,6.72 1.62,3.96 3.12,7.68 H 40.5 Q 39.66,-3.18 38.58,-6.06 37.44,-9 36.3,-11.64 q -1.62,-3.84 -3.24,-5.52 -1.62,-1.68 -4.2,-1.62 h -6.78 v 18.24 h -6.12 v -43.98 h 10.56 q 6.9,-0.18 11.82,2.16 4.86,2.4 5.1,9.78 -0.06,4.74 -2.1,7.38 -2.04,2.58 -4.98,3.72 1.62,0.96 2.88,2.52 1.2,1.62 2.28,4.02 z m 14.22,-27 q -0.06,-2.76 -1.92,-4.68 -1.86,-1.86 -4.68,-1.92 H 10.86 q -2.82,0.06 -4.68,1.92 -1.86,1.92 -1.92,4.68 v 38.28 q 0.06,2.82 1.92,4.62 1.86,1.8 4.68,1.86 h 38.28 q 2.82,-0.06 4.68,-1.86 1.86,-1.8 1.92,-4.62 z"
       id="path6085" />
  </g>
  <g
     aria-label=""
     transform="matrix(1.00000002235174 0 0 1.00000002235174 61.4689019444045 114.375311263844)"
     id="shape01"
     style="font-size:60px;font-family:'XIV AXIS Std ATK';letter-spacing:0;word-spacing:0;stroke:#000000;stroke-width:0;stroke-linecap:square;stroke-linejoin:bevel;stroke-opacity:0">
    <path
       d="m 50.76,-1.8 h -6.12 l -0.78,-32.04 -11.64,30.6 h -5.1 L 16.02,-33.72 15.18,-1.8 H 9.36 l 1.62,-41.46 h 7.38 l 11.52,31.56 11.76,-31.56 h 7.62 z m 4.98,-40.14 q -0.06,-2.76 -1.92,-4.68 -1.86,-1.86 -4.68,-1.92 H 10.86 q -2.82,0.06 -4.68,1.92 -1.86,1.92 -1.92,4.68 v 38.28 q 0.06,2.82 1.92,4.62 1.86,1.8 4.68,1.86 h 38.28 q 2.82,-0.06 4.68,-1.86 1.86,-1.8 1.92,-4.62 z"
       id="path6082" />
  </g>
  <g
     aria-label=""
     transform="matrix(1.00000002235174 0 0 1.00000002235174 61.4110967144909 54.2465622256033)"
     id="shape02"
     style="font-size:60px;font-family:'XIV AXIS Std ATK';letter-spacing:0;word-spacing:0;stroke:#000000;stroke-width:0;stroke-linecap:square;stroke-linejoin:bevel;stroke-opacity:0">
    <path
       d="M 45.84,-1.8 H 39.9 V -20.28 H 19.92 V -1.8 h -6 v -41.46 h 6 v 17.58 H 39.9 v -17.58 h 5.94 z m 9.9,-40.14 q -0.06,-2.76 -1.92,-4.68 -1.86,-1.86 -4.68,-1.92 H 10.86 q -2.82,0.06 -4.68,1.92 -1.86,1.92 -1.92,4.68 v 38.28 q 0.06,2.82 1.92,4.62 1.86,1.8 4.68,1.86 h 38.28 q 2.82,-0.06 4.68,-1.86 1.86,-1.8 1.92,-4.62 z"
       id="path6079" />
  </g>
  <g
     aria-label=""
     transform="matrix(1.00000002235174 0 0 1.00000002235174 1.32438744609501 54.2465622218025)"
     id="shape03"
     style="font-size:60px;font-family:'XIV AXIS Std ATK';letter-spacing:0;word-spacing:0;stroke:#000000;stroke-width:0;stroke-linecap:square;stroke-linejoin:bevel;stroke-opacity:0">
    <path
       d="M 45.54,-37.86 H 33.36 V -1.8 h -6 V -37.86 H 15.18 v -5.4 h 30.36 z m 10.2,-4.08 q -0.06,-2.76 -1.92,-4.68 -1.86,-1.86 -4.68,-1.92 H 10.86 q -2.82,0.06 -4.68,1.92 -1.86,1.92 -1.92,4.68 v 38.28 q 0.06,2.82 1.92,4.62 1.86,1.8 4.68,1.86 h 38.28 q 2.82,-0.06 4.68,-1.86 1.86,-1.8 1.92,-4.62 z"
       id="path6076" />
  </g>
</svg>
